TITLE ""
FILE "DISC2Track24.mp3" MP3
  TRACK 01 AUDIO
    TITLE "DISC2Track24_01"
    INDEX 01 00:00:00
  TRACK 02 AUDIO
    TITLE "DISC2Track24_02"
    INDEX 01 00:01:57
  TRACK 03 AUDIO
    TITLE "DISC2Track24_03"
    INDEX 01 00:01:72
  TRACK 04 AUDIO
    TITLE "DISC2Track24_04"
    INDEX 01 00:04:65
  TRACK 05 AUDIO
    TITLE "DISC2Track24_05"
    INDEX 01 00:08:43
  TRACK 06 AUDIO
    TITLE "DISC2Track24_06"
    INDEX 01 00:11:61
  TRACK 07 AUDIO
    TITLE "DISC2Track24_07"
    INDEX 01 00:11:75
  TRACK 08 AUDIO
    TITLE "DISC2Track24_08"
    INDEX 01 00:15:71
  TRACK 09 AUDIO
    TITLE "DISC2Track24_09"
    INDEX 01 00:19:35
  TRACK 10 AUDIO
    TITLE "DISC2Track24_10"
    INDEX 01 00:22:41
  TRACK 11 AUDIO
    TITLE "DISC2Track24_11"
    INDEX 01 00:22:61
  TRACK 12 AUDIO
    TITLE "DISC2Track24_12"
    INDEX 01 00:26:39
  TRACK 13 AUDIO
    TITLE "DISC2Track24_13"
    INDEX 01 00:30:25
  TRACK 14 AUDIO
    TITLE "DISC2Track24_14"
    INDEX 01 00:33:69
  TRACK 15 AUDIO
    TITLE "DISC2Track24_15"
    INDEX 01 00:34:09
  TRACK 16 AUDIO
    TITLE "DISC2Track24_16"
    INDEX 01 00:35:50
  TRACK 17 AUDIO
    TITLE "DISC2Track24_17"
    INDEX 01 00:37:66
  TRACK 18 AUDIO
    TITLE "DISC2Track24_18"
    INDEX 01 00:39:46
  TRACK 19 AUDIO
    TITLE "DISC2Track24_19"
    INDEX 01 00:39:63
  TRACK 20 AUDIO
    TITLE "DISC2Track24_20"
    INDEX 01 00:43:30
  TRACK 21 AUDIO
    TITLE "DISC2Track24_21"
    INDEX 01 00:46:71
  TRACK 22 AUDIO
    TITLE "DISC2Track24_22"
    INDEX 01 00:50:12
  TRACK 23 AUDIO
    TITLE "DISC2Track24_23"
    INDEX 01 00:50:24
  TRACK 24 AUDIO
    TITLE "DISC2Track24_24"
    INDEX 01 00:54:30
  TRACK 25 AUDIO
    TITLE "DISC2Track24_25"
    INDEX 01 00:57:26
  TRACK 26 AUDIO
    TITLE "DISC2Track24_26"
    INDEX 01 00:59:64
  TRACK 27 AUDIO
    TITLE "DISC2Track24_27"
    INDEX 01 01:00:03
  TRACK 28 AUDIO
    TITLE "DISC2Track24_28"
    INDEX 01 01:03:44
  TRACK 29 AUDIO
    TITLE "DISC2Track24_29"
    INDEX 01 01:06:29
  TRACK 30 AUDIO
    TITLE "DISC2Track24_30"
    INDEX 01 01:08:61
  TRACK 31 AUDIO
    TITLE "DISC2Track24_31"
    INDEX 01 01:09:04
  TRACK 32 AUDIO
    TITLE "DISC2Track24_32"
    INDEX 01 01:12:12
  TRACK 33 AUDIO
    TITLE "DISC2Track24_33"
    INDEX 01 01:15:51
  TRACK 34 AUDIO
    TITLE "DISC2Track24_34"
    INDEX 01 01:18:55
  TRACK 35 AUDIO
    TITLE "DISC2Track24_35"
    INDEX 01 01:18:71
  TRACK 36 AUDIO
    TITLE "DISC2Track24_36"
    INDEX 01 01:22:55
  TRACK 37 AUDIO
    TITLE "DISC2Track24_37"
    INDEX 01 01:25:73
  TRACK 38 AUDIO
    TITLE "DISC2Track24_38"
    INDEX 01 01:28:56
  TRACK 39 AUDIO
    TITLE "DISC2Track24_39"
    INDEX 01 01:28:72
  TRACK 40 AUDIO
    TITLE "DISC2Track24_40"
    INDEX 01 01:32:07
  TRACK 41 AUDIO
    TITLE "DISC2Track24_41"
    INDEX 01 01:35:30
  TRACK 42 AUDIO
    TITLE "DISC2Track24_42"
    INDEX 01 01:38:17
  TRACK 43 AUDIO
    TITLE "DISC2Track24_43"
    INDEX 01 01:38:33
  TRACK 44 AUDIO
    TITLE "DISC2Track24_44"
    INDEX 01 01:40:75
  TRACK 45 AUDIO
    TITLE "DISC2Track24_45"
    INDEX 01 01:44:08
  TRACK 46 AUDIO
    TITLE "DISC2Track24_46"
    INDEX 01 01:46:58
